<svg id="Layer_1" data-name="Layer 1" xmlns="http://www.w3.org/2000/svg" viewBox="0 0 1000 1000"><title>California</title><path d="M219.5,451.43c-7.05-18.15-10.13-31.61-17.12-42.57C194.83,397,180.47,389,174.77,376.64c-8.2-17.76-15.73-38-15.45-57,.41-28.08-6.45-49.59-28.75-67-16.51-12.92-10.73-29.52-3.87-45.5,12.26-28.54,22.64-57.39,15.51-89.39-2.46-11.05-4-22.32-6.28-35.63H431.21c0,25.8-.17,50.67,0,75.54.47,58.49.57,117,2.26,175.45.28,9.63,5.36,22,12.5,28.11Q625.42,514,806.12,665.29c21.71,18.25,41.34,37.71,52.1,64.77,1.87,4.7,6.76,8.62,11,11.88,13.64,10.39,15,22.05,1,31s-17.63,18.65-13.87,34.67c1.81,7.71-3.5,17.11-5.71,25.72-2.32,9-4.8,18.06-7.21,27.08l6.82-1.56c5.25,8.85,15.52,18.49,14.27,26.31-1.11,7-14.17,15.43-23.2,17.31-55.68,11.63-111.69,21.64-167.62,32.06-16.89,3.14-29.52-10-32.82-26.93-2.81-14.4-8.22-31.26-18.38-40.61-17.5-16.11-32.89-39.11-62.22-36.25-1.68.16-5.11-1.8-5.14-2.84-.71-25.69-20.87-18.5-35.54-22.77-11.5-3.35-21-13.09-31.92-19.09-9.25-5.1-18.81-10.6-28.92-13-22.17-5.18-46.65,5.22-67.63-11.25-8-6.29-12-9.37-8.52-21.32,4.13-14.33,6.38-32-14-39.51-3.39-30.59-38.44-38.71-46.8-65.86-.95-3.07-3-7.6-5.35-8.16-31.5-7.59-29.19-35.62-36.33-58.25-3.69-11.69-10.57-22.37-14.29-34-6-18.73-11.3-37.75-15.44-57C246,456.78,228.05,455.33,219.5,451.43Z"/></svg>